<svg id="logo_white" xmlns="http://www.w3.org/2000/svg" width="745.459" height="420.483" viewBox="0 0 745.459 420.483">
  <path id="Subtraction_6" data-name="Subtraction 6" d="M295.59,420.484h0a476.143,476.143,0,0,1-49.909-5.128A431.346,431.346,0,0,1,195.708,404.5c-34.917-9.849-66.071-23.755-92.6-41.331a247.673,247.673,0,0,1-38.854-31.676,223.244,223.244,0,0,1-16.741-18.854,213.663,213.663,0,0,1-26.931-44.118A223.032,223.032,0,0,1,10.866,243.1,240.68,240.68,0,0,1,3.959,215.35,269.441,269.441,0,0,1,.1,185.186,64.586,64.586,0,0,1,1.22,169.075a66.289,66.289,0,0,1,6.376-17.8,88.447,88.447,0,0,1,13.71-18.983,143.483,143.483,0,0,1,23.123-19.657A253.251,253.251,0,0,1,79.042,92.812a449.3,449.3,0,0,1,48.182-19.478c19.066-6.556,40.541-12.822,63.829-18.627,24.71-6.159,52.149-11.968,81.554-17.266,23.853-4.072,48.02-8.8,71.391-13.375,30.4-5.95,61.844-12.1,91.718-16.6,16.06-2.416,30.483-4.189,44.093-5.42C495.057.67,508.927,0,522.212,0c10.468,0,20.6.437,30.113,1.3a259.972,259.972,0,0,1,28.816,4.192A211.161,211.161,0,0,1,608.5,13.02a183.322,183.322,0,0,1,25.752,11.309A173.633,173.633,0,0,1,658.24,39.862a181.689,181.689,0,0,1,22.062,20.2,209.354,209.354,0,0,1,19.983,25.311,260.925,260.925,0,0,1,17.746,30.865,322.669,322.669,0,0,1,18.257,44.839c2.189,6.962,4.009,13.837,5.409,20.431a177.582,177.582,0,0,1,3.021,19.182,145.606,145.606,0,0,1,.7,17.989,124.788,124.788,0,0,1-1.55,16.852,113.284,113.284,0,0,1-3.733,15.772,110.091,110.091,0,0,1-5.847,14.749,118.751,118.751,0,0,1-15.027,23.414,151.788,151.788,0,0,1-20.871,20.781A215.526,215.526,0,0,1,672.039,328.7a320.244,320.244,0,0,1-31.474,16.414c-21.691,9.912-46.834,19.045-76.863,27.922-26.531,7.843-56.954,15.489-93.006,23.375-27.555,5.636-56.967,11.524-86.946,16.13C349.408,417.812,320.571,420.412,295.59,420.484ZM514.937,15.552c-12.678,0-25.914.62-40.463,1.893-12.988,1.137-26.752,2.775-42.077,5.008-28.509,4.153-58.51,9.838-87.523,15.335-22.3,4.225-45.357,8.594-68.124,12.358C174.177,68.041,100.918,91.416,59.007,119.623a135.868,135.868,0,0,0-22.065,18.162,81.848,81.848,0,0,0-13.083,17.54,59.992,59.992,0,0,0-6.085,16.448A57.83,57.83,0,0,0,16.7,186.659c2.732,36.793,13.257,69.9,31.282,98.387,16.3,25.759,38.844,47.985,67.018,66.06,25.313,16.24,55.042,29.088,88.362,38.189a423.23,423.23,0,0,0,47.687,10.035,468.736,468.736,0,0,0,47.626,4.738c23.84-.067,51.358-2.468,84.128-7.343,28.611-4.256,56.676-9.7,82.969-14.9,34.683-7.346,63.922-14.471,89.387-21.78,28.842-8.279,52.956-16.8,73.72-26.064,45.931-20.482,75.087-44.7,89.133-74.035,17.39-36.318,12.085-81.127-16.218-136.988a239.282,239.282,0,0,0-16.935-28.519A194.541,194.541,0,0,0,665.8,71.048a171.475,171.475,0,0,0-21.053-18.665,166.389,166.389,0,0,0-22.888-14.352C592.717,22.9,557.743,15.551,514.937,15.552Z" transform="translate(-0.001 0)" fill="#fff"/>
</svg>
